<svg width="71" height="71" viewBox="0 0 71 71" fill="none" xmlns="http://www.w3.org/2000/svg">
<g clip-path="url(#clip0_566_999)" filter="url(#filter0_d_566_999)">
<path d="M66.9999 33.6003V29.4003C66.9999 28.8204 66.5297 28.3503 65.9499 28.3503H52.8249V7.35035C52.8249 6.77049 52.3548 6.30035 51.7749 6.30035H40.6334C42.0509 4.92144 42.8504 3.0279 42.8499 1.05036C42.8499 0.470503 42.3798 0.000366211 41.7999 0.000366211C39.216 0.00443495 36.824 1.3651 35.4999 3.58401C34.1759 1.3651 31.7839 0.00443495 29.1999 0.000366211C28.6201 0.000366211 28.1499 0.470503 28.1499 1.05036C28.1494 3.0279 28.949 4.92144 30.3665 6.30035H19.225C18.6451 6.30035 18.175 6.77049 18.175 7.35035V28.3503H5.05C4.47014 28.3503 4 28.8204 4 29.4003V33.6003C4 34.1802 4.47014 34.6503 5.05 34.6503H39.5298L33.2298 36.7503H17.65C17.3715 36.7503 17.1045 36.8611 16.9076 37.0579L12.4 41.5656L11.0423 40.2079C10.6323 39.798 9.96766 39.798 9.55764 40.2079L4.30765 45.4579C3.89776 45.8679 3.89776 46.5326 4.30765 46.9426L20.0576 62.6926C20.4676 63.1025 21.1323 63.1025 21.5423 62.6926L26.7923 57.4426C27.2022 57.0326 27.2022 56.3679 26.7923 55.9579L26.6191 55.7847L32.6859 51.4503H53.3499C53.6127 51.4503 53.866 51.3517 54.0597 51.1741L65.4774 40.7088C67.1991 39.1329 67.499 36.5303 66.1809 34.6041C66.6551 34.5024 66.9954 34.0853 66.9999 33.6003ZM40.6155 2.23476C40.1592 4.18605 38.6356 5.7096 36.6843 6.16595C37.1407 4.21466 38.6642 2.69112 40.6155 2.23476ZM34.3155 6.16595C32.3642 5.7096 30.8407 4.18605 30.3843 2.23476C32.3356 2.69112 33.8592 4.21466 34.3155 6.16595ZM20.275 8.40035H50.7249V28.3503C25.937 28.3503 38.4298 28.3503 20.275 28.3503V8.40035ZM6.1 32.5503V30.4503H64.8999V32.5503H6.1ZM48.8778 35.2535C48.7657 35.0418 48.6358 34.84 48.4895 34.6503H57.9384L50.8509 40.9503H47.1245C49.1818 39.8613 49.9668 37.3107 48.8778 35.2535ZM20.8 60.4655L6.53469 46.2003L10.3 42.435L24.5653 56.7002L20.8 60.4655ZM64.0599 39.1652L52.9414 49.3501H32.3499C32.1311 49.3501 31.918 49.4184 31.7399 49.5454L25.1134 54.2788L13.8847 43.0501L18.0847 38.8502H33.3999C33.5127 38.8503 33.6248 38.8322 33.7317 38.7966L44.4732 35.2161C45.5837 34.8435 46.7861 35.4417 47.1587 36.5522C47.5313 37.6627 46.9331 38.8651 45.8226 39.2377C45.7827 39.2511 45.7424 39.2633 45.7017 39.2744L39.5592 40.9501H36.5499V43.0501H51.2499C51.5069 43.0503 51.755 42.956 51.9471 42.7855L60.3628 35.3054C60.8374 34.8831 61.4506 34.6499 62.0859 34.6502H62.3032C63.7367 34.645 64.903 35.8029 64.9081 37.2363C64.9108 37.9704 64.6026 38.6711 64.0599 39.1652Z" fill="#02133C"/>
<path d="M66.9999 33.6003V29.4003C66.9999 28.8204 66.5297 28.3503 65.9499 28.3503H52.8249V7.35035C52.8249 6.77049 52.3548 6.30035 51.7749 6.30035H40.6334C42.0509 4.92144 42.8504 3.0279 42.8499 1.05036C42.8499 0.470503 42.3798 0.000366211 41.7999 0.000366211C39.216 0.00443495 36.824 1.3651 35.4999 3.58401C34.1759 1.3651 31.7839 0.00443495 29.1999 0.000366211C28.6201 0.000366211 28.1499 0.470503 28.1499 1.05036C28.1494 3.0279 28.949 4.92144 30.3665 6.30035H19.225C18.6451 6.30035 18.175 6.77049 18.175 7.35035V28.3503H5.05C4.47014 28.3503 4 28.8204 4 29.4003V33.6003C4 34.1802 4.47014 34.6503 5.05 34.6503C66.1809 34.6041 66.1809 34.6041 66.1809 34.6041C66.6551 34.5024 66.9954 34.0853 66.9999 33.6003ZM40.6155 2.23476C40.1592 4.18605 38.6356 5.7096 36.6843 6.16595C37.1407 4.21466 38.6642 2.69112 40.6155 2.23476ZM34.3155 6.16595C32.3642 5.7096 30.8407 4.18605 30.3843 2.23476C32.3356 2.69112 33.8592 4.21466 34.3155 6.16595ZM20.275 8.40035H50.7249V28.3503C25.937 28.3503 38.4298 28.3503 20.275 28.3503V8.40035Z" fill="#C40B0B"/>
<path d="M58.0751 4.2002H55.9751V6.30019H58.0751V4.2002Z" fill="#C40B0B"/>
<path d="M60.1747 2.10022H58.0747V4.20021H60.1747V2.10022Z" fill="#C40B0B"/>
<path d="M62.2748 4.2002H60.1748V6.30019H62.2748V4.2002Z" fill="#C40B0B"/>
<path d="M60.1747 6.30029H58.0747V8.4003H60.1747V6.30029Z" fill="#C40B0B"/>
<path d="M67.0001 1.05017H64.9001V3.15017H67.0001V1.05017Z" fill="#C40B0B"/>
<path d="M58.6 12.6003H56.5V14.7003H58.6V12.6003Z" fill="#C40B0B"/>
<path d="M12.9252 11.5502H10.8252V13.6502H12.9252V11.5502Z" fill="#C40B0B"/>
<path d="M12.9252 15.7504H10.8252V17.8504H12.9252V15.7504Z" fill="#C40B0B"/>
<path d="M15.0253 13.6501H12.9253V15.7501H15.0253V13.6501Z" fill="#C40B0B"/>
<path d="M10.8246 13.6501H8.72461V15.7501H10.8246V13.6501Z" fill="#C40B0B"/>
<path d="M6.1 6.30029H4V8.4003H6.1V6.30029Z" fill="#C40B0B"/>
<path d="M15.5499 1.05017H13.45V3.15017H15.5499V1.05017Z" fill="#C40B0B"/>
<path d="M35.4998 28.875L25.2522 16.1538H45.7474L35.4998 28.875Z" fill="#C40B0B"/>
<path d="M45.7474 16.1538H25.2522L28.7859 10.5H42.2137L45.7474 16.1538Z" fill="#E30B0B"/>
<path d="M40.147 16.1538L42.2128 10.5H28.7849L30.8507 16.1538H40.147Z" fill="#C40B0B"/>
<path d="M40.0937 16.1538L35.5 10.5L30.9062 16.1538H40.0937Z" fill="#FE6F6F"/>
<path d="M30.8508 16.1538L35.499 28.875L40.1472 16.1538H30.8508Z" fill="#CB465F"/>
</g>
<defs>
<filter id="filter0_d_566_999" x="0" y="0" width="71" height="71" filterUnits="userSpaceOnUse" color-interpolation-filters="sRGB">
<feFlood flood-opacity="0" result="BackgroundImageFix"/>
<feColorMatrix in="SourceAlpha" type="matrix" values="0 0 0 0 0 0 0 0 0 0 0 0 0 0 0 0 0 0 127 0" result="hardAlpha"/>
<feOffset dy="4"/>
<feGaussianBlur stdDeviation="2"/>
<feComposite in2="hardAlpha" operator="out"/>
<feColorMatrix type="matrix" values="0 0 0 0 0 0 0 0 0 0 0 0 0 0 0 0 0 0 0.25 0"/>
<feBlend mode="normal" in2="BackgroundImageFix" result="effect1_dropShadow_566_999"/>
<feBlend mode="normal" in="SourceGraphic" in2="effect1_dropShadow_566_999" result="shape"/>
</filter>
<clipPath id="clip0_566_999">
<rect width="63" height="63" fill="white" transform="translate(4)"/>
</clipPath>
</defs>
</svg>
